<?xml version="1.0" encoding="UTF-8" standalone="no"?>
<svg width="51px" height="54px" viewBox="0 0 51 54" version="1.1" xmlns="http://www.w3.org/2000/svg" xmlns:xlink="http://www.w3.org/1999/xlink">
    <!-- Generator: Sketch 39.1 (31720) - http://www.bohemiancoding.com/sketch -->
    <title>Pride study flag</title>
    <desc>Created with Sketch.</desc>
    <defs></defs>
    <g id="Page-1" stroke="none" stroke-width="1" fill="none" fill-rule="evenodd">
        <g id="Pride-study-flag">
            <path d="M48.3558863,0.438165 C46.7934863,-0.440685 44.2530113,0.274365 44.2530113,0.274365 L19.5451988,6.142815 L50.0167238,12.86019 L50.0167238,3.85749 C50.0167238,3.85749 49.9190738,1.317015 48.3558863,0.438165" id="Fill-1" fill="#63C3AB"></path>
            <path d="M4.49386875,9.71814375 C4.49386875,9.71814375 0.58156875,10.5694313 0.05866875,14.1777563 L24.3223312,19.5256688 L50.0168812,13.8611813 L50.0168812,12.8602688 L19.5453562,6.14210625 L4.49386875,9.71814375 Z" id="Fill-3" fill="#B9D433"></path>
            <path d="M0.05922,14.177835 C0.02142,14.436135 0.000157500001,14.707035 0.000157500001,14.993685 L0.000157500001,24.8870475 L24.322095,19.526535 L0.05922,14.177835 Z" id="Fill-5" fill="#FCD726"></path>
            <polygon id="Fill-7" fill="#F26B26" points="0 37.2168563 24.32115 31.8555563 0 26.4942563"></polygon>
            <polygon id="Fill-9" fill="#B9D433" points="50.0170388 25.1897625 50.0170388 13.861575 24.3224888 19.5260625"></polygon>
            <polygon id="Fill-11" fill="#B46331" points="50.0170388 13.8610238 24.3224888 19.5255113 50.0170388 25.1899988"></polygon>
            <polygon id="Fill-13" fill="#FCD726" points="0 24.8868112 0 26.4940987 24.32115 31.8561862 50.017275 26.1916987 50.017275 25.1892112 24.3219375 19.5255112"></polygon>
            <polygon id="Fill-15" fill="#EC6423" points="0 24.8868112 0 26.4940987 24.32115 31.8561862 50.017275 26.1916987 50.017275 25.1892112 24.3219375 19.5255112"></polygon>
            <path d="M24.3213862,31.8558712 L24.3213862,31.8558712 L0.00023625,37.2171712 L0.00023625,44.8866337 C0.00023625,44.8866337 0.09788625,47.0349337 1.66107375,47.8169212 C2.07766125,48.0256087 2.64072375,48.1019962 3.24237375,48.1019962 C4.89533625,48.1019962 6.83888625,47.5239712 6.83888625,47.5239712 L19.7334112,44.3983837 L20.0625862,45.1244587 L29.3322487,42.7422712 L30.3811987,42.0539962 L46.4028862,38.1464212 C46.4028862,38.1464212 47.2431487,37.9156837 48.1141237,37.1006212 L24.3213862,31.8558712 Z" id="Fill-17" fill="#EE3E31"></path>
            <path d="M48.114045,37.1007 C49.0488075,36.225 50.016645,34.67205 50.016645,31.9914 L50.016645,26.19225 L24.3213075,31.85595 L48.114045,37.1007 Z" id="Fill-19" fill="#FCD726"></path>
            <path d="M50.0170387,26.1918563 L50.0170387,26.1918563 L24.3217012,31.8555563 L48.1144387,37.1003063 C49.0484137,36.2246063 50.0170387,34.6716563 50.0170387,31.9910063 L50.0170387,26.1918563" id="Fill-21" fill="#E93B25"></path>
            <polygon id="Fill-23" fill="#DC227D" points="19.722465 44.426655 19.722465 54.04518 30.3812775 42.0539175"></polygon>
        </g>
    </g>
</svg>