<svg xmlns="http://www.w3.org/2000/svg" viewBox="0 0 213.51 235.38"><title>nav-filter-funnel</title><path d="M106.75,0C67.1,0,0,6.43,0,30.53a13.42,13.42,0,0,0,3.29,8.63A16.29,16.29,0,0,0,5.4,42.37l68.35,82.3a25.9,25.9,0,0,1,4.89,13.54v84.48c0,8.33,5.7,12.68,11.33,12.68a14.16,14.16,0,0,0,7.08-2l25.88-14.89c6.8-3.91,11.93-12.78,11.93-20.62V138.21a25.9,25.9,0,0,1,4.89-13.54l68.35-82.3a16.29,16.29,0,0,0,2.11-3.22,13.42,13.42,0,0,0,3.29-8.63C213.51,6.43,146.4,0,106.75,0Zm0,54.56C51.39,54.56,6.5,43.8,6.5,30.53s44.89-24,100.25-24S207,17.26,207,30.53,162.12,54.56,106.75,54.56Z" fill="#a7a7a7"/></svg>