<svg xmlns="http://www.w3.org/2000/svg" viewBox="0 0 686.72 591.44"><title>nav-home</title><path d="M682.8,308.73L562.67,198.51V33.73H447.87V93.16L349.71,3.08a11.91,11.91,0,0,0-16,0L3.87,308.78a11.91,11.91,0,0,0-2,15.17,12.52,12.52,0,0,0,10.68,5.52H95.27V579.54a11.9,11.9,0,0,0,11.9,11.9H262.48A11.41,11.41,0,0,0,273.89,580V435.52a14.39,14.39,0,0,1,14.39-14.39H398.43a14.39,14.39,0,0,1,14.39,14.39V580a11.41,11.41,0,0,0,11.41,11.41H579.54a11.91,11.91,0,0,0,11.9-11.9V329.47h82.75a12.49,12.49,0,0,0,10.68-5.55A11.9,11.9,0,0,0,682.8,308.73Z" fill="#a7a7a7"/></svg>