<?xml version="1.0" encoding="UTF-8" standalone="no"?>
<svg width="25px" height="27px" viewBox="0 0 25 27" version="1.1" xmlns="http://www.w3.org/2000/svg" xmlns:xlink="http://www.w3.org/1999/xlink">
    <!-- Generator: Sketch 39.1 (31720) - http://www.bohemiancoding.com/sketch -->
    <title>Calendar icon</title>
    <desc>Created with Sketch.</desc>
    <defs></defs>
    <g id="Page-1" stroke="none" stroke-width="1" fill="none" fill-rule="evenodd">
        <g id="Participants---Join-date-cal" transform="translate(-842.000000, -182.000000)" fill="#34495E">
            <g id="Join-date-filter-exp" transform="translate(685.000000, 111.000000)">
                <g id="Calendar-icon" transform="translate(157.000000, 71.000000)">
                    <path d="M22.8713523,7.50888309 L2.10548977,7.50888309 L2.10548977,3.84162788 C2.10548977,3.67249331 2.24225877,3.53484617 2.41031433,3.53484617 L5.15022661,3.53484617 L5.15022661,4.0751351 C5.15022661,4.65934457 5.62252193,5.13459872 6.20300439,5.13459872 C6.78348684,5.13459872 7.25570906,4.65934457 7.25570906,4.0751351 L7.25570906,3.53484617 L17.7210599,3.53484617 L17.7210599,4.0751351 C17.7210599,4.65934457 18.1933553,5.13459872 18.7738377,5.13459872 C19.3543202,5.13459872 19.8265424,4.65934457 19.8265424,4.0751351 L19.8265424,3.53484617 L22.5664547,3.53484617 C22.7345833,3.53484617 22.8713523,3.67249331 22.8713523,3.84162788 L22.8713523,7.50888309 Z M22.8713523,23.7646348 C22.8713523,23.933843 22.7345833,24.0714901 22.5664547,24.0714901 L2.41031433,24.0714901 C2.24225877,24.0714901 2.10548977,23.933843 2.10548977,23.7646348 L2.10548977,9.6278839 L22.8713523,9.6278839 L22.8713523,23.7646348 Z M22.5664547,1.41584537 L19.8265424,1.41584537 L19.8265424,1.12811798 C19.8265424,0.543982076 19.3543202,0.0686543606 18.7738377,0.0686543606 C18.1933553,0.0686543606 17.7210599,0.543982076 17.7210599,1.12811798 L17.7210599,1.41584537 L7.25570906,1.41584537 L7.25570906,1.12811798 C7.25570906,0.543982076 6.78348684,0.0686543606 6.20300439,0.0686543606 C5.62252193,0.0686543606 5.15022661,0.543982076 5.15022661,1.12811798 L5.15022661,1.41584537 L2.41031433,1.41584537 C1.08129386,1.41584537 7.30994157e-06,2.50407437 7.30994157e-06,3.84162788 L7.30994157e-06,23.7646348 C7.30994157e-06,25.1022619 1.08129386,26.1904909 2.41031433,26.1904909 L22.5664547,26.1904909 C23.8955482,26.1904909 24.9768348,25.1022619 24.9768348,23.7646348 L24.9768348,3.84162788 C24.9768348,2.50407437 23.8955482,1.41584537 22.5664547,1.41584537 L22.5664547,1.41584537 Z" id="Fill-1"></path>
                    <path d="M11.1974927,13.9768272 L13.7792909,13.9768272 C14.3118933,13.9768272 14.7451535,13.5407852 14.7451535,13.0048368 L14.7451535,11.7196643 C14.7451535,11.1837159 14.3118933,10.7476739 13.7792909,10.7476739 L11.1974927,10.7476739 C10.6649635,10.7476739 10.2317032,11.1837159 10.2317032,11.7196643 L10.2317032,13.0048368 C10.2317032,13.5407852 10.6649635,13.9768272 11.1974927,13.9768272" id="Fill-4"></path>
                    <path d="M11.1974927,18.4699946 L13.7792909,18.4699946 C14.3118933,18.4699946 14.7451535,18.0339526 14.7451535,17.4980043 L14.7451535,16.2128317 C14.7451535,15.6768834 14.3118933,15.2408414 13.7792909,15.2408414 L11.1974927,15.2408414 C10.6649635,15.2408414 10.2317032,15.6768834 10.2317032,16.2128317 L10.2317032,17.4980043 C10.2317032,18.0339526 10.6649635,18.4699946 11.1974927,18.4699946" id="Fill-6"></path>
                    <path d="M17.7715936,13.9768272 L20.3534649,13.9768272 C20.8859942,13.9768272 21.3192544,13.5407852 21.3192544,13.0048368 L21.3192544,11.7196643 C21.3192544,11.1837159 20.8859942,10.7476739 20.3534649,10.7476739 L17.7715936,10.7476739 C17.2390643,10.7476739 16.8058041,11.1837159 16.8058041,11.7196643 L16.8058041,13.0048368 C16.8058041,13.5407852 17.2390643,13.9768272 17.7715936,13.9768272" id="Fill-8"></path>
                    <path d="M4.62337719,18.4699946 L7.20517544,18.4699946 C7.73770468,18.4699946 8.17096491,18.0339526 8.17096491,17.4980043 L8.17096491,16.2128317 C8.17096491,15.6768834 7.73770468,15.2408414 7.20517544,15.2408414 L4.62337719,15.2408414 C4.09084795,15.2408414 3.65758772,15.6768834 3.65758772,16.2128317 L3.65758772,17.4980043 C3.65758772,18.0339526 4.09084795,18.4699946 4.62337719,18.4699946" id="Fill-10"></path>
                    <path d="M17.7715936,18.4699946 L20.3534649,18.4699946 C20.8859942,18.4699946 21.3192544,18.0339526 21.3192544,17.4980043 L21.3192544,16.2128317 C21.3192544,15.6768834 20.8859942,15.2408414 20.3534649,15.2408414 L17.7715936,15.2408414 C17.2390643,15.2408414 16.8058041,15.6768834 16.8058041,16.2128317 L16.8058041,17.4980043 C16.8058041,18.0339526 17.2390643,18.4699946 17.7715936,18.4699946" id="Fill-12"></path>
                    <path d="M11.1974927,22.9532671 L13.7792909,22.9532671 C14.3118933,22.9532671 14.7451535,22.5172251 14.7451535,21.9812768 L14.7451535,20.6961042 C14.7451535,20.1601558 14.3118933,19.7241138 13.7792909,19.7241138 L11.1974927,19.7241138 C10.6649635,19.7241138 10.2317032,20.1601558 10.2317032,20.6961042 L10.2317032,21.9812768 C10.2317032,22.5172251 10.6649635,22.9532671 11.1974927,22.9532671" id="Fill-14"></path>
                    <path d="M4.62337719,22.9532671 L7.20517544,22.9532671 C7.73770468,22.9532671 8.17096491,22.5172251 8.17096491,21.9812768 L8.17096491,20.6961042 C8.17096491,20.1601558 7.73770468,19.7241138 7.20517544,19.7241138 L4.62337719,19.7241138 C4.09084795,19.7241138 3.65758772,20.1601558 3.65758772,20.6961042 L3.65758772,21.9812768 C3.65758772,22.5172251 4.09084795,22.9532671 4.62337719,22.9532671" id="Fill-16"></path>
                </g>
            </g>
        </g>
    </g>
</svg>