<?xml version="1.0" encoding="UTF-8" standalone="no"?>
<svg width="15px" height="8px" viewBox="0 0 15 8" version="1.1" xmlns="http://www.w3.org/2000/svg" xmlns:xlink="http://www.w3.org/1999/xlink">
    <!-- Generator: sketchtool 3.7.1 (28215) - http://www.bohemiancoding.com/sketch -->
    <title>DA1CF0BD-E748-4F8A-9B63-B9F7C5BB9BD4</title>
    <desc>Created with sketchtool.</desc>
    <defs></defs>
    <g id="Page-1" stroke="none" stroke-width="1" fill="none" fill-rule="evenodd">
        <g id="Dashboard" transform="translate(-1194.000000, -814.000000)" stroke="#E74C3C" fill="#E74C3C">
            <g id="Most-Active" transform="translate(978.000000, 746.000000)">
                <g id="Most-Active-1" transform="translate(19.000000, 64.000000)">
                    <path d="M201.336876,14.66032 C201.381876,14.7072644 201.440953,14.730857 201.50003,14.730857 C201.559107,14.730857 201.618184,14.7072644 201.663184,14.66032 L207.663184,8.40106072 C207.753415,8.30693109 207.753415,8.15478294 207.663184,8.06065331 L201.663184,1.80139405 C201.572953,1.70726442 201.427107,1.70726442 201.336876,1.80139405 C201.246645,1.89552368 201.246645,2.04767183 201.336876,2.14180146 L207.173722,8.23085702 L201.336876,14.3199126 C201.246645,14.4140422 201.246645,14.5661903 201.336876,14.66032 L201.336876,14.66032 Z" id="Decrease-carrot" transform="translate(204.500030, 8.230827) rotate(90.000000) translate(-204.500030, -8.230827) "></path>
                </g>
            </g>
        </g>
    </g>
</svg>