<?xml version="1.0" encoding="UTF-8" standalone="no"?>
<svg width="8px" height="13px" viewBox="0 0 8 13" version="1.1" xmlns="http://www.w3.org/2000/svg" xmlns:xlink="http://www.w3.org/1999/xlink">
    <!-- Generator: Sketch 39.1 (31720) - http://www.bohemiancoding.com/sketch -->
    <title>Red flag icon</title>
    <desc>Created with Sketch.</desc>
    <defs>
        <polyline id="path-1" points="0 0.0312653811 7.94217722 0.0312653811 7.94217722 12.4444444 0 12.4444444"></polyline>
    </defs>
    <g id="Page-1" stroke="none" stroke-width="1" fill="none" fill-rule="evenodd">
        <g id="Participants" transform="translate(-264.000000, -233.000000)">
            <g id="Red-flag-icon" transform="translate(264.000000, 233.000000)">
                <path d="M0.425934177,0.0312859504 L0.425934177,0.0312859504 C0.190693671,0.0312859504 1.01265823e-05,0.224946189 1.01265823e-05,0.463858953 L1.01265823e-05,12.011892 C1.01265823e-05,12.2508048 0.190693671,12.444465 0.425934177,12.444465 C0.661174684,12.444465 0.851858228,12.2508048 0.851858228,12.011892 L0.851858228,0.463858953 C0.851858228,0.224946189 0.661174684,0.0312859504 0.425934177,0.0312859504" id="Fill-1" fill="#E74C3C"></path>
                <mask id="mask-2" fill="white">
                    <use xlink:href="#path-1"></use>
                </mask>
                <g id="Clip-5"></g>
                <path d="M7.88284557,5.98524298 L6.47828861,4.08206575 C6.32132658,3.86948173 6.32132658,3.49049183 6.47828861,3.27790781 L7.88284557,1.37473058 C8.02836456,1.1776764 7.88983291,0.896493664 7.64730127,0.896493664 L1.77590886,0.896493664 C1.61327595,0.896493664 1.48152911,1.03029715 1.48152911,1.19546887 L1.48152911,6.16460753 C1.48152911,6.3296764 1.61327595,6.46358274 1.77590886,6.46358274 L7.64730127,6.46358274 C7.88983291,6.46358274 8.02836456,6.1824 7.88284557,5.98524298" id="Fill-4" fill="#E74C3C"></path>
            </g>
        </g>
    </g>
</svg>