<?xml version="1.0" encoding="UTF-8" standalone="no"?>
<svg width="22px" height="22px" viewBox="0 0 22 22" version="1.1" xmlns="http://www.w3.org/2000/svg" xmlns:xlink="http://www.w3.org/1999/xlink">
    <!-- Generator: sketchtool 3.7.1 (28215) - http://www.bohemiancoding.com/sketch -->
    <title>088CE1BD-049C-4798-A0C3-AF33B396CC9F</title>
    <desc>Created with sketchtool.</desc>
    <defs></defs>
    <g id="Page-1" stroke="none" stroke-width="1" fill="none" fill-rule="evenodd">
        <g id="Dashboard" transform="translate(-33.000000, -122.000000)" fill="#2ECC71">
            <g id="Left-Panel">
                <g id="NAV-Dashboard-on" transform="translate(0.000000, 109.000000)">
                    <g id="icon" transform="translate(33.000000, 13.000000)">
                        <path d="M20.3017222,6.0115 C20.2888889,5.98155556 20.2785,5.951 20.2613889,5.92166667 C20.2345,5.87522222 20.2027222,5.83366667 20.1697222,5.79394444 C19.2603889,4.27716667 17.9898889,3.00727778 16.4737222,2.09855556 C16.4346111,2.06555556 16.3930556,2.03377778 16.3472222,2.0075 C16.3178889,1.99038889 16.2873333,1.98 16.2567778,1.96655556 C14.7027222,1.08472222 12.9109444,0.574444444 11,0.574444444 C9.08844444,0.574444444 7.29666667,1.08472222 5.74261111,1.96716667 C5.71266667,1.98 5.6815,1.99038889 5.65277778,2.0075 C5.60694444,2.03377778 5.56538889,2.06555556 5.52627778,2.09855556 C4.0095,3.00727778 2.739,4.27777778 1.82966667,5.79455556 C1.79666667,5.83427778 1.76488889,5.87522222 1.73861111,5.92166667 C1.7215,5.951 1.71111111,5.98155556 1.69827778,6.0115 C0.815833333,7.56616667 0.305555556,9.35794444 0.305555556,11.2688889 C0.305555556,17.1655 5.10338889,21.9633333 11,21.9633333 C16.8966111,21.9633333 21.6944444,17.1655 21.6944444,11.2688889 C21.6944444,9.35794444 21.1841667,7.56616667 20.3017222,6.0115 M11,20.13 C6.42338889,20.13 2.64672222,16.6423889 2.18655556,12.1855556 L3.14844444,12.1855556 C3.65444444,12.1855556 4.06511111,11.7748889 4.06511111,11.2688889 C4.06511111,10.7628889 3.65444444,10.3522222 3.14844444,10.3522222 L2.18655556,10.3522222 C2.28494444,9.40133333 2.53977778,8.4975 2.915,7.65966667 L3.74183333,8.13694444 C3.88605556,8.22066667 4.04372222,8.25977778 4.19955556,8.25977778 C4.51611111,8.25977778 4.82411111,8.096 4.994,7.80144444 C5.247,7.36266667 5.09666667,6.80227778 4.6585,6.54927778 L3.83655556,6.07444444 C4.38594444,5.31911111 5.05022222,4.65483333 5.80555556,4.10544444 L6.27977778,4.92738889 C6.44966667,5.22133333 6.75827778,5.38572222 7.07483333,5.38572222 C7.23066667,5.38572222 7.38772222,5.34661111 7.53255556,5.26288889 C7.97072222,5.00988889 8.12105556,4.4495 7.86805556,4.01072222 L7.39077778,3.18388889 C8.22922222,2.80805556 9.13244444,2.55383333 10.0833333,2.45544444 L10.0833333,3.41672222 C10.0833333,3.92272222 10.4933889,4.33338889 11,4.33338889 C11.5066111,4.33338889 11.9166667,3.92272222 11.9166667,3.41672222 L11.9166667,2.45544444 C12.8675556,2.55383333 13.7707778,2.80805556 14.6092222,3.18388889 L14.1319444,4.01072222 C13.8789444,4.4495 14.0292778,5.00988889 14.4674444,5.26288889 C14.6122778,5.34661111 14.7693333,5.38572222 14.9251667,5.38572222 C15.2417222,5.38572222 15.5503333,5.22133333 15.7202222,4.92738889 L16.1944444,4.10544444 C16.9497778,4.65483333 17.6140556,5.31911111 18.1634444,6.07444444 L17.3415,6.54927778 C16.9033333,6.80227778 16.753,7.36266667 17.006,7.80144444 C17.1758889,8.096 17.4838889,8.25977778 17.8004444,8.25977778 C17.9562778,8.25977778 18.1139444,8.22066667 18.2581667,8.13694444 L19.085,7.65966667 C19.4602222,8.4975 19.7150556,9.40133333 19.8134444,10.3522222 L18.8515556,10.3522222 C18.3455556,10.3522222 17.9348889,10.7628889 17.9348889,11.2688889 C17.9348889,11.7748889 18.3455556,12.1855556 18.8515556,12.1855556 L19.8134444,12.1855556 C19.3532778,16.6423889 15.5766111,20.13 11,20.13" id="Fill-1"></path>
                        <path d="M13.6345,11.6936111 C13.2690556,10.5178333 12.2992222,8.98394444 11.8243889,8.27811111 C11.4833889,7.77211111 10.6437222,7.77211111 10.3027222,8.27811111 C9.83216667,8.97844444 8.87333333,10.494 8.50116667,11.6655 C8.46938889,11.7645 8.43211111,11.8604444 8.41133333,11.9643333 C8.36733333,12.1488889 8.33983333,12.3224444 8.33983333,12.4764444 C8.33983333,13.9785556 9.56144444,15.2001667 11.0635556,15.2001667 C12.5656667,15.2001667 13.7872778,13.9785556 13.7872778,12.4764444 C13.7872778,12.3224444 13.7597778,12.1476667 13.7157778,11.9618889 C13.6968333,11.8696111 13.6626111,11.7822222 13.6345,11.6936111 M11.0635556,13.3668333 C11.0036667,13.3668333 10.945,13.3601111 10.8881667,13.3491111 C10.4909444,13.2678333 10.1908889,12.9152222 10.1908889,12.4935556 C10.1908889,12.0126111 10.5826111,11.6221111 11.0635556,11.6221111 C11.5445,11.6221111 11.9362222,12.0126111 11.9362222,12.4935556 C11.9362222,12.9152222 11.6361667,13.2678333 11.2389444,13.3491111 C11.1821111,13.3601111 11.1234444,13.3668333 11.0635556,13.3668333" id="Fill-2"></path>
                    </g>
                </g>
            </g>
        </g>
    </g>
</svg>