<?xml version="1.0" encoding="UTF-8" standalone="no"?>
<svg width="15px" height="8px" viewBox="0 0 15 8" version="1.1" xmlns="http://www.w3.org/2000/svg" xmlns:xlink="http://www.w3.org/1999/xlink">
    <!-- Generator: sketchtool 3.7.1 (28215) - http://www.bohemiancoding.com/sketch -->
    <title>0E9E53A1-211E-4D9E-8486-52FB9A13A640</title>
    <desc>Created with sketchtool.</desc>
    <defs></defs>
    <g id="Page-1" stroke="none" stroke-width="1" fill="none" fill-rule="evenodd">
        <g id="Dashboard" transform="translate(-1134.000000, -814.000000)" stroke="#2ECC71" fill="#2ECC71">
            <g id="Most-Active" transform="translate(978.000000, 746.000000)">
                <g id="Most-Active-1" transform="translate(19.000000, 64.000000)">
                    <path d="M141.336876,14.66032 C141.381876,14.7072644 141.440953,14.730857 141.50003,14.730857 C141.559107,14.730857 141.618184,14.7072644 141.663184,14.66032 L147.663184,8.40106072 C147.753415,8.30693109 147.753415,8.15478294 147.663184,8.06065331 L141.663184,1.80139405 C141.572953,1.70726442 141.427107,1.70726442 141.336876,1.80139405 C141.246645,1.89552368 141.246645,2.04767183 141.336876,2.14180146 L147.173722,8.23085702 L141.336876,14.3199126 C141.246645,14.4140422 141.246645,14.5661903 141.336876,14.66032 L141.336876,14.66032 Z" id="Increase-carrot" transform="translate(144.500030, 8.230827) scale(1, -1) rotate(90.000000) translate(-144.500030, -8.230827) "></path>
                </g>
            </g>
        </g>
    </g>
</svg>