<?xml version="1.0" encoding="UTF-8" standalone="no"?>
<svg width="21px" height="16px" viewBox="0 0 21 16" version="1.1" xmlns="http://www.w3.org/2000/svg" xmlns:xlink="http://www.w3.org/1999/xlink">
    <!-- Generator: sketchtool 3.7.1 (28215) - http://www.bohemiancoding.com/sketch -->
    <title>C9D5FD89-9461-45B5-A153-548FBA062B56</title>
    <desc>Created with sketchtool.</desc>
    <defs></defs>
    <g id="Page-1" stroke="none" stroke-width="1" fill="none" fill-rule="evenodd">
        <g id="Dashboard" transform="translate(-34.000000, -299.000000)" fill="#95A5A6">
            <g id="Left-Panel">
                <g id="NAV-Admin-off" transform="translate(34.000000, 298.000000)">
                    <g id="NAV-admin-icon" transform="translate(0.000000, 1.000000)">
                        <path d="M11.9895106,9.82741818 L14.7321702,9.82741818 C15.3706596,9.82741818 15.3706596,8.8856 14.7321702,8.8856 L11.9895106,8.8856 C11.3508723,8.8856 11.3508723,9.82741818 11.9895106,9.82741818 L11.9895106,9.82741818 Z M11.9895106,8.06116364 L14.4217872,8.06116364 C15.0601277,8.06116364 15.0601277,7.10261818 14.4217872,7.10261818 L11.9895106,7.10261818 C11.3508723,7.10261818 11.3508723,8.06116364 11.9895106,8.06116364 L11.9895106,8.06116364 Z M11.9895106,6.27861818 L15.3359574,6.27861818 C15.9744468,6.27861818 15.9744468,5.31978182 15.3359574,5.31978182 L11.9895106,5.31978182 C11.3508723,5.31978182 11.3508723,6.27861818 11.9895106,6.27861818 L11.9895106,6.27861818 Z M19.4765319,12.2159273 L18.0096596,12.2159273 L18.0096596,3.36894545 C18.0096596,3.09956364 17.8029362,2.89781818 17.5266596,2.89781818 L3.89855319,2.89781818 L3.89855319,1.468 L19.4765319,1.468 L19.4765319,12.2159273 Z M17.0436596,14.5871273 L1.46612766,14.5871273 L1.46612766,3.83949091 L17.0436596,3.83949091 L17.0436596,14.5871273 Z M20.2009574,0.0383272727 L3.17397872,0.0383272727 C2.76008511,0.0383272727 2.43212766,0.358036364 2.43212766,0.761672727 L2.43212766,2.41010909 L0.741553191,2.41010909 C0.327659574,2.41010909 0,2.72938182 0,3.13316364 L0,15.2936 C0,15.6809455 0.327659574,16.0000727 0.741553191,16.0000727 L17.768234,16.0000727 C18.1822766,16.0000727 18.510383,15.6809455 18.510383,15.2936 L18.510383,13.6288727 L20.2009574,13.6288727 C20.6151489,13.6288727 20.9426596,13.3090182 20.9426596,12.9224 L20.9426596,0.761672727 C20.9426596,0.358036364 20.6151489,0.0383272727 20.2009574,0.0383272727 L20.2009574,0.0383272727 Z M6.81412766,9.70989091 C8.33208511,9.70989091 9.69485106,11.2067636 9.95370213,12.5859636 L3.69153191,12.5859636 C3.95023404,11.2067636 5.31329787,9.70989091 6.81412766,9.70989091 L6.81412766,9.70989091 Z M6.81412766,5.80749091 C7.64221277,5.80749091 8.29753191,6.46334545 8.29753191,7.25418182 C8.29753191,8.04472727 7.64221277,8.70058182 6.81412766,8.70058182 C6.00346809,8.70058182 5.34755319,8.04472727 5.34755319,7.25418182 C5.34755319,6.46334545 6.00346809,5.80749091 6.81412766,5.80749091 L6.81412766,5.80749091 Z M2.65642553,13.0568 C2.65642553,13.3090182 2.86374468,13.5276364 3.13957447,13.5276364 L10.5056596,13.5276364 C10.7642128,13.5276364 10.9886596,13.3090182 10.9886596,13.0568 C10.9886596,11.5769455 9.86761702,9.84414545 8.33208511,9.12094545 C8.90161702,8.68370909 9.26353191,8.01127273 9.26353191,7.25418182 C9.26353191,5.94232727 8.17689362,4.86567273 6.81412766,4.86567273 C5.46848936,4.86567273 4.3642766,5.94232727 4.3642766,7.25418182 C4.3642766,8.01127273 4.74406383,8.68370909 5.2957234,9.12094545 C3.77791489,9.84414545 2.65642553,11.5769455 2.65642553,13.0568 L2.65642553,13.0568 Z" id="Fill-1"></path>
                    </g>
                </g>
            </g>
        </g>
    </g>
</svg>