<?xml version="1.0" encoding="UTF-8" standalone="no"?>
<svg width="42px" height="42px" viewBox="0 0 42 42" version="1.1" xmlns="http://www.w3.org/2000/svg" xmlns:xlink="http://www.w3.org/1999/xlink">
    <!-- Generator: sketchtool 3.7.1 (28215) - http://www.bohemiancoding.com/sketch -->
    <title>210CCFFB-6945-4ECC-B388-481795213568</title>
    <desc>Created with sketchtool.</desc>
    <defs></defs>
    <g id="Page-1" stroke="none" stroke-width="1" fill="none" fill-rule="evenodd">
        <g id="Dashboard" transform="translate(-1188.000000, -33.000000)" stroke="#9BA3AF">
            <g id="Global-links" transform="translate(1129.000000, 34.000000)">
                <g id="View-Community" transform="translate(60.000000, 0.000000)">
                    <path d="M20,40 C31.045695,40 40,31.045695 40,20 C40,8.954305 31.045695,0 20,0 C8.954305,0 0,8.954305 0,20 C0,31.045695 8.954305,40 20,40 Z" id="Oval-5" fill="#FFFFFF"></path>
                    <path d="M26.1921785,11 C25.7992379,11 25.4591364,11.083047 25.3758697,11.1050633 L17.6348406,12.9244877 L12.9184076,14.0333992 C12.2967696,14.1695444 11.2054677,14.725619 11.0253563,15.956268 C11.0085066,16.0697493 11,16.1864683 11,16.3023779 L11,19.3738201 L11,19.8727493 L11,23.2015885 L11,25.5827535 L11,25.597485 L11.0006544,25.6122165 C11.005562,25.7193843 11.0723063,26.6707819 11.882726,27.0717707 C12.096046,27.1771578 12.3540257,27.2284753 12.6713883,27.2284753 C13.2344615,27.2284753 13.8418672,27.0636765 13.9686487,27.0275762 L17.1872612,26.2552233 L17.1872612,28.4259379 L17.1872612,30.1291289 L18.330748,28.8560661 L21.5388909,25.2843996 L26.3667279,24.1194759 L26.3757253,24.1173714 L26.3845591,24.1149431 C26.4545752,24.0958407 26.8234683,23.9836544 27.1959603,23.6381921 C27.5628903,23.29791 28,22.6646163 28,21.5793399 L28,19.7788561 L28,19.4677133 L28,15.9509258 L28,15.6401068 L28,12.8451641 L28,12.8326989 L27.9995092,12.8203957 C27.9949287,12.7025435 27.9321106,11.6569289 27.1452477,11.2191922 C26.8841598,11.0738195 26.5633618,11 26.1921785,11 M26.1921785,11.6475396 C26.4068072,11.6475396 26.6379584,11.6797547 26.8246134,11.7836848 C27.3150531,12.0564608 27.3456442,12.8451641 27.3456442,12.8451641 L27.3456442,15.6401068 L27.3456442,15.9509258 L27.3456442,19.4677133 L27.3456442,19.7788561 L27.3456442,21.5793399 C27.3456442,22.4115902 27.0418595,22.8936834 26.7487081,23.16565 C26.4755146,23.418838 26.2116456,23.4903912 26.2116456,23.4903912 L21.1855387,24.7032328 L17.841617,28.4259379 L17.841617,25.439971 L17.8484878,25.438514 L17.8450524,25.4310673 L13.7996613,26.4017292 C13.7996613,26.4017292 13.1899653,26.5809357 12.6713883,26.5809357 C12.4827702,26.5809357 12.3060942,26.5571387 12.1753866,26.4925466 C11.6851105,26.250043 11.6543558,25.5827535 11.6543558,25.5827535 L11.6543558,23.2015885 L11.6543558,19.8727493 L11.6543558,19.3738201 L11.6543558,16.3023779 C11.6543558,16.2133412 11.6610629,16.1291611 11.6728413,16.0490281 C11.8367575,14.9289465 13.0641654,14.6647503 13.0641654,14.6647503 L17.7861604,13.5545437 L25.537332,11.732691 C25.537332,11.732691 25.8430797,11.6475396 26.1921785,11.6475396" id="Fill-1" stroke-width="0.7" fill="#9BA3AF"></path>
                </g>
            </g>
        </g>
    </g>
</svg>