<?xml version="1.0" encoding="UTF-8" standalone="no"?>
<svg width="42px" height="42px" viewBox="0 0 42 42" version="1.1" xmlns="http://www.w3.org/2000/svg" xmlns:xlink="http://www.w3.org/1999/xlink">
    <!-- Generator: sketchtool 3.7.1 (28215) - http://www.bohemiancoding.com/sketch -->
    <title>DD42452D-DB0B-4D49-988C-7FED5AA6E7E2</title>
    <desc>Created with sketchtool.</desc>
    <defs></defs>
    <g id="Page-1" stroke="none" stroke-width="1" fill="none" fill-rule="evenodd">
        <g id="Dashboard" transform="translate(-1248.000000, -33.000000)">
            <g id="Global-links" transform="translate(1129.000000, 34.000000)">
                <g id="Logout" transform="translate(120.000000, 0.000000)">
                    <path d="M20,40 C31.045695,40 40,31.045695 40,20 C40,8.954305 31.045695,0 20,0 C8.954305,0 0,8.954305 0,20 C0,31.045695 8.954305,40 20,40 Z" id="Oval-5" stroke="#9BA3AF" fill="#FFFFFF"></path>
                    <path d="M27.3416923,28.5384615 L15.476,28.5384615 C15.0938462,28.5384615 14.7836923,28.2287692 14.7836923,27.8461538 C14.7836923,21.4524615 19.9681538,20.8233846 20.0203077,20.8178462 C20.8501538,20.726 21.2881538,21.2235385 21.2881538,21.7049231 L21.2881538,22.1087692 L23.4370769,20.3826154 L21.2881538,18.662 L21.2881538,19.0575385 C21.2881538,19.3889231 21.0929231,19.6843077 20.7652308,19.8476923 C20.5783077,19.9413846 20.354,19.9907692 20.1158462,19.9907692 L20.0263077,19.9898462 C19.4156923,19.9898462 14.0147692,20.1103077 12.3347692,24.2803077 C12.2106154,24.5881538 11.8861538,24.7635385 11.5607692,24.7012308 C11.2353846,24.638 11,24.3532308 11,24.0213846 L11,12.1972308 C11,11.5372308 11.5372308,11 12.1972308,11 L27.3416923,11 C28.0016923,11 28.5389231,11.5372308 28.5389231,12.1972308 L28.5389231,27.3416923 C28.5389231,28.0016923 28.0016923,28.5384615 27.3416923,28.5384615 L27.3416923,28.5384615 Z M16.1932308,27.1538462 L27.1543077,27.1538462 L27.1543077,12.3846154 L12.3846154,12.3846154 L12.3846154,21.6209231 C14.8815385,18.8576923 18.9827692,18.6232308 19.9035385,18.6061538 L19.9035385,17.7873846 C19.9035385,17.2224615 20.2963077,16.796 20.8164615,16.796 C21.0135385,16.796 21.2147692,16.8601538 21.3984615,16.9806154 C21.4164615,16.9921538 21.434,17.0050769 21.4510769,17.0189231 L24.6103077,19.5481538 C24.8992308,19.7507692 25.0644615,20.0530769 25.0644615,20.3816923 C25.0649231,20.7103077 24.9001538,21.0121538 24.6116923,21.2152308 L21.4515385,23.7536923 C21.4344615,23.7670769 21.4169231,23.78 21.3984615,23.792 C20.9535385,24.0850769 20.3950769,24.0056923 20.1061538,23.6263077 C19.9736923,23.4523077 19.9035385,23.2307692 19.9035385,22.9866154 L19.9035385,22.2430769 C19.0547692,22.436 16.4729231,23.3355385 16.1932308,27.1538462 L16.1932308,27.1538462 Z M20.1652308,22.1738462 C20.186,22.1849231 20.204,22.1913846 20.2187692,22.1936923 L20.0941538,21.506 L20.1652308,22.1738462 L20.1652308,22.1738462 Z" id="Imported-Layers" fill="#9BA3AF"></path>
                </g>
            </g>
        </g>
    </g>
</svg>