<?xml version="1.0" encoding="UTF-8" standalone="no"?>
<svg width="42px" height="42px" viewBox="0 0 42 42" version="1.1" xmlns="http://www.w3.org/2000/svg" xmlns:xlink="http://www.w3.org/1999/xlink">
    <!-- Generator: sketchtool 3.7.1 (28215) - http://www.bohemiancoding.com/sketch -->
    <title>98EB8BB9-2100-4E30-B7AB-1605326CBD67</title>
    <desc>Created with sketchtool.</desc>
    <defs></defs>
    <g id="Page-1" stroke="none" stroke-width="1" fill="none" fill-rule="evenodd">
        <g id="Dashboard" transform="translate(-1128.000000, -33.000000)">
            <g id="Global-links" transform="translate(1129.000000, 34.000000)">
                <g id="New-Featured-Post">
                    <path d="M20,40 C31.045695,40 40,31.045695 40,20 C40,8.954305 31.045695,0 20,0 C8.954305,0 0,8.954305 0,20 C0,31.045695 8.954305,40 20,40 Z" id="Oval-5-Copy" stroke="#9BA3AF"></path>
                    <path d="M23.5885,21.454 L23.5885,21.454 L27.6845,17.361 L23.149,12.8315 L20.1145,15.863 L19.3765,15.125 L22.4435,12.062 L21.3835,11 L17.2545,15.125 L19.053,16.9225 L12.635,23.334 L12,28.5005 L12.9065,28.39 L26.623,28.39 L26.623,26.89 L18.147,26.89 L23.5885,21.454 L23.5885,21.454 Z M23.149,14.9515 L25.5615,17.361 L23.588,19.333 L21.1755,16.9225 L23.149,14.9515 L23.149,14.9515 Z M14.061,24.031 L20.1145,17.983 L22.527,20.3935 L16.4745,26.44 L13.723,26.778 L14.061,24.031 L14.061,24.031 Z" id="Imported-Layers" fill="#9BA3AF"></path>
                </g>
            </g>
        </g>
    </g>
</svg>