<?xml version="1.0" encoding="UTF-8" standalone="no"?>
<svg width="22px" height="23px" viewBox="0 0 22 23" version="1.1" xmlns="http://www.w3.org/2000/svg" xmlns:xlink="http://www.w3.org/1999/xlink">
    <!-- Generator: sketchtool 3.7.1 (28215) - http://www.bohemiancoding.com/sketch -->
    <title>050E27B0-6E72-4B4A-9CF8-B892592D559C</title>
    <desc>Created with sketchtool.</desc>
    <defs></defs>
    <g id="Page-1" stroke="none" stroke-width="1" fill="none" fill-rule="evenodd">
        <g id="Dashboard" transform="translate(-33.000000, -180.000000)" fill="#95A5A6">
            <g id="Left-Panel">
                <g id="NAV-Partcipants-off" transform="translate(33.000000, 180.000000)">
                    <g id="Participant-icon-off">
                        <path d="M16.7477333,21.4026993 L16.1930667,18.1224064 C16.1437333,17.8326064 15.8655667,17.6366136 15.5717333,17.6849136 C15.2774,17.732885 15.0787333,18.0072421 15.1275667,18.2978636 L15.6527333,21.4026993 L6.21773333,21.4026993 L6.74323333,18.2978636 C6.8594,17.6065493 5.79473333,17.4322421 5.67756667,18.1224064 L5.12273333,21.4026993 L1.71523333,21.4026993 C2.22823333,17.0813279 6.30406667,12.3551564 10.9352333,12.3551564 C15.5690667,12.3551564 19.6422333,17.0780421 20.1552333,21.4026993 L16.7477333,21.4026993 Z M6.34523333,6.232885 C6.34523333,3.73787786 8.40423333,1.70862071 10.9352333,1.70862071 C13.4662333,1.70862071 15.5254,3.73787786 15.5254,6.232885 C15.5254,8.73380643 13.4724,10.756985 10.9352333,10.756985 C8.40423333,10.756985 6.34523333,8.72805643 6.34523333,6.232885 L6.34523333,6.232885 Z M14.2429,11.4093636 C16.0554,10.2802279 17.1452333,8.360385 17.1452333,6.232885 C17.1452333,2.85730643 14.3590667,0.111270714 10.9352333,0.111270714 C7.51123333,0.111270714 4.7249,2.85730643 4.7249,6.232885 C4.7249,8.41164214 5.88923333,10.3227779 7.63273333,11.4075564 C3.51673333,13.029385 6.66666665e-05,17.8186421 6.66666665e-05,22.2014564 C6.66666665e-05,22.6425636 0.362733333,23.0000493 0.810233333,23.0000493 L21.0602333,23.0000493 C21.5072333,23.0000493 21.8702333,22.642235 21.8702333,22.2014564 C21.8702333,17.8227493 18.3560667,13.0321779 14.2429,11.4093636 L14.2429,11.4093636 Z" id="Fill-1"></path>
                    </g>
                </g>
            </g>
        </g>
    </g>
</svg>