<?xml version="1.0" encoding="UTF-8" standalone="no"?>
<svg width="13px" height="15px" viewBox="0 0 13 15" version="1.1" xmlns="http://www.w3.org/2000/svg" xmlns:xlink="http://www.w3.org/1999/xlink">
    <!-- Generator: Sketch 39.1 (31720) - http://www.bohemiancoding.com/sketch -->
    <title>Previous page arrows off</title>
    <desc>Created with Sketch.</desc>
    <defs></defs>
    <g id="Page-1" stroke="none" stroke-width="1" fill="none" fill-rule="evenodd">
        <g id="Participants" transform="translate(-598.000000, -939.000000)" stroke="#95A5A6" fill="#2ECC71">
            <g id="Page-Pagination" transform="translate(599.000000, 927.000000)">
                <g id="Previous-page-arrows-off" transform="translate(5.500000, 19.500000) scale(-1, 1) translate(-5.500000, -19.500000) translate(0.000000, 13.000000)">
                    <path d="M0.0676153846,12.929463 C0.112615385,12.9764074 0.171692308,13 0.230769231,13 C0.289846154,13 0.348923077,12.9764074 0.393923077,12.929463 L6.39392308,6.6702037 C6.48415385,6.57607407 6.48415385,6.42392593 6.39392308,6.3297963 L0.393923077,0.070537037 C0.303692308,-0.0235925926 0.157846154,-0.0235925926 0.0676153846,0.070537037 C-0.0226153846,0.164666667 -0.0226153846,0.316814815 0.0676153846,0.410944444 L5.90446154,6.5 L0.0676153846,12.5890556 C-0.0226153846,12.6831852 -0.0226153846,12.8353333 0.0676153846,12.929463 L0.0676153846,12.929463 Z M10.4429231,6.5 L4.60607692,0.410944444 C4.51584615,0.316814815 4.51584615,0.164666667 4.60607692,0.070537037 C4.69630769,-0.0235925926 4.84215385,-0.0235925926 4.93238462,0.070537037 L10.9323846,6.3297963 C11.0226154,6.42392593 11.0226154,6.57607407 10.9323846,6.6702037 L4.93238462,12.929463 C4.88738462,12.9764074 4.82830769,13 4.76923077,13 C4.71015385,13 4.65107692,12.9764074 4.60607692,12.929463 C4.51584615,12.8353333 4.51584615,12.6831852 4.60607692,12.5890556 L10.4429231,6.5 Z" id="Fill-1"></path>
                </g>
            </g>
        </g>
    </g>
</svg>