<?xml version="1.0" encoding="UTF-8" standalone="no"?>
<svg width="20px" height="20px" viewBox="0 0 20 20" version="1.1" xmlns="http://www.w3.org/2000/svg" xmlns:xlink="http://www.w3.org/1999/xlink">
    <!-- Generator: sketchtool 3.7.1 (28215) - http://www.bohemiancoding.com/sketch -->
    <title>FE1060DD-9EBC-4BBB-86F8-FF6D8299439D</title>
    <desc>Created with sketchtool.</desc>
    <defs></defs>
    <g id="Page-1" stroke="none" stroke-width="1" fill="none" fill-rule="evenodd">
        <g id="Participants" transform="translate(-472.000000, -121.000000)" fill="#95A5A6">
            <g id="Search-bar" transform="translate(244.000000, 111.000000)">
                <path d="M247.195972,28.0222222 L244.134306,24.9611111 C244.10375,24.93 244.06375,24.9166667 244.029861,24.8911111 C247.010417,21.33 246.832639,16.0033333 243.487083,12.6577778 C241.773194,10.9438889 239.494306,10 237.070417,10 C234.646528,10 232.367639,10.9438889 230.65375,12.6577778 C227.115417,16.1961111 227.115417,21.9538889 230.65375,25.4916667 C232.367639,27.2061111 234.646528,28.15 237.070417,28.15 C239.222639,28.15 241.258194,27.4027778 242.887639,26.0361111 C242.912083,26.0694444 242.925417,26.1088889 242.955972,26.1394444 L246.017083,29.2005556 C246.179861,29.3633333 246.393194,29.4444444 246.606528,29.4444444 C246.819861,29.4444444 247.033194,29.3633333 247.195972,29.2005556 C247.521528,28.875 247.521528,28.3472222 247.195972,28.0222222 M237.070417,26.4833333 C235.091528,26.4833333 233.230972,25.7122222 231.832083,24.3133333 C228.94375,21.425 228.94375,16.7255556 231.832083,13.8361111 C233.230972,12.4372222 235.091528,11.6666667 237.070417,11.6666667 C239.049306,11.6666667 240.909861,12.4372222 242.30875,13.8361111 C245.197083,16.7255556 245.197083,21.425 242.30875,24.3133333 C240.909306,25.7122222 239.049306,26.4833333 237.070417,26.4833333" id="Search-icon"></path>
            </g>
        </g>
    </g>
</svg>