<?xml version="1.0" encoding="UTF-8" standalone="no"?>
<!-- Created with Inkscape (http://www.inkscape.org/) -->

<svg
   xmlns:dc="http://purl.org/dc/elements/1.1/"
   xmlns:cc="http://creativecommons.org/ns#"
   xmlns:rdf="http://www.w3.org/1999/02/22-rdf-syntax-ns#"
   xmlns:svg="http://www.w3.org/2000/svg"
   xmlns="http://www.w3.org/2000/svg"
   version="1.1"
   width="20"
   height="20"
   viewBox="0 0 20 20"
   id="svg2">
  <title
     id="title4">FE1060DD-9EBC-4BBB-86F8-FF6D8299439D</title>
  <desc
     id="desc6">Created with sketchtool.</desc>
  <metadata
     id="metadata16">
    <rdf:RDF>
      <cc:Work
         rdf:about="">
        <dc:format>image/svg+xml</dc:format>
        <dc:type
           rdf:resource="http://purl.org/dc/dcmitype/StillImage" />
        <dc:title>FE1060DD-9EBC-4BBB-86F8-FF6D8299439D</dc:title>
      </cc:Work>
    </rdf:RDF>
  </metadata>
  <defs
     id="defs8" />
  <g
     transform="matrix(1.2934288,0,0,1.2934288,-2.3454468,-1.5579538)"
     id="g3033">
    <g
       transform="matrix(1.1154492,0,0,1.0931319,-1.3095123,-0.80987724)"
       id="g3043">
      <g
         transform="matrix(0,-1,1,0,2.2945937,16.483082)"
         id="Page-1-3"
         style="fill:none;stroke:none">
        <g
           transform="translate(-645,-127)"
           id="Participants-6"
           style="fill:#2ecc71;stroke:#95a5a6">
          <g
             transform="translate(519,111)"
             id="Status-filter">
            <path
               d="m 130.33688,26.66032 c 0.045,0.04694 0.10407,0.07054 0.16315,0.07054 0.0591,0 0.11815,-0.02359 0.16315,-0.07054 l 6,-6.259259 c 0.0902,-0.09413 0.0902,-0.246278 0,-0.340408 l -6,-6.259259 c -0.0902,-0.09413 -0.23607,-0.09413 -0.3263,0 -0.0902,0.09413 -0.0902,0.246278 0,0.340408 l 5.83684,6.089055 -5.83684,6.089056 c -0.0902,0.09413 -0.0902,0.246277 0,0.340407 l 0,0 z"
               transform="matrix(0,1,-1,0,153.73086,-113.2692)"
               id="Gray-carrot-down" />
          </g>
        </g>
      </g>
      <g
         transform="matrix(0,1,-1,0,17.15763,1.4139365)"
         id="Page-1-3-7"
         style="fill:none;stroke:none">
        <g
           transform="translate(-645,-127)"
           id="Participants-6-5"
           style="fill:#2ecc71;stroke:#95a5a6">
          <g
             transform="translate(519,111)"
             id="Status-filter-3">
            <path
               d="m 130.33688,26.66032 c 0.045,0.04694 0.10407,0.07054 0.16315,0.07054 0.0591,0 0.11815,-0.02359 0.16315,-0.07054 l 6,-6.259259 c 0.0902,-0.09413 0.0902,-0.246278 0,-0.340408 l -6,-6.259259 c -0.0902,-0.09413 -0.23607,-0.09413 -0.3263,0 -0.0902,0.09413 -0.0902,0.246278 0,0.340408 l 5.83684,6.089055 -5.83684,6.089056 c -0.0902,0.09413 -0.0902,0.246277 0,0.340407 l 0,0 z"
               transform="matrix(0,1,-1,0,153.73086,-113.2692)"
               id="Gray-carrot-down-5" />
          </g>
        </g>
      </g>
    </g>
  </g>
</svg>
