<?xml version="1.0" encoding="UTF-8" standalone="no"?>
<svg width="22px" height="22px" viewBox="0 0 22 22" version="1.1" xmlns="http://www.w3.org/2000/svg" xmlns:xlink="http://www.w3.org/1999/xlink">
    <!-- Generator: sketchtool 3.7.1 (28215) - http://www.bohemiancoding.com/sketch -->
    <title>07F8C9C6-C362-405A-B8CB-1C83BDD221AE</title>
    <desc>Created with sketchtool.</desc>
    <defs></defs>
    <g id="Page-1" stroke="none" stroke-width="1" fill="none" fill-rule="evenodd">
        <g id="Dashboard" transform="translate(-33.000000, -240.000000)" fill="#95A5A6">
            <g id="Left-Panel">
                <g id="NAV-Topic-off" transform="translate(33.000000, 240.000000)">
                    <g id="Topic-icon">
                        <path d="M21.5966667,8.39605556 C21.5966667,4.08283333 18.0882778,0.574444444 13.7750556,0.574444444 C10.9413333,0.574444444 8.46266667,2.09488889 7.09011111,4.35783333 C3.36355556,4.59555556 0.403333333,7.69388889 0.403333333,11.4785 C0.403333333,15.1066667 3.124,18.1053889 6.63116667,18.5576111 L6.63116667,21.0466667 C6.63116667,21.4298333 6.87011111,21.7738889 7.23005556,21.9065 C7.33333333,21.945 7.44088889,21.9627222 7.54783333,21.9627222 C7.81,21.9627222 8.06666667,21.8502778 8.24388889,21.6425 L12.7612222,16.3612778 C12.7991111,16.3172778 12.8308889,16.2702222 12.8583889,16.2213333 L12.8583889,19.0037222 C12.8583889,19.3875 13.0979444,19.7309444 13.4578889,19.8641667 C13.5611667,19.9020556 13.6687222,19.9203889 13.7750556,19.9203889 C14.0378333,19.9203889 14.2945,19.8073333 14.4723333,19.5995556 L19.4797778,13.7445 C19.4975,13.7237222 19.5097222,13.7011111 19.5256111,13.6791111 C20.8065,12.2857778 21.5966667,10.4335 21.5966667,8.39605556 M13.7750556,2.40777778 C17.0768889,2.40777778 19.7633333,5.09422222 19.7633333,8.39605556 C19.7633333,11.6972778 17.0768889,14.3837222 13.7750556,14.3837222 C10.4738333,14.3837222 7.78738889,11.6972778 7.78738889,8.39605556 C7.78738889,5.09422222 10.4738333,2.40777778 13.7750556,2.40777778 M2.23666667,11.4785 C2.23666667,9.00288889 3.94166667,6.92327778 6.23761111,6.33783333 C6.05794444,6.99477778 5.95405556,7.68288889 5.95405556,8.39605556 C5.95405556,11.671 7.97988889,14.4778333 10.8417222,15.6407778 C9.90733333,16.3838889 8.75905556,16.7896667 7.54783333,16.7896667 C4.61938889,16.7896667 2.23666667,14.4069444 2.23666667,11.4785" id="Fill-1"></path>
                        <path d="M12.2686667,8.00005556 L15.2826667,8.00005556 C15.7886667,8.00005556 16.1993333,7.58938889 16.1993333,7.08338889 C16.1993333,6.578 15.7886667,6.16672222 15.2826667,6.16672222 L12.2686667,6.16672222 C11.7620556,6.16672222 11.352,6.578 11.352,7.08338889 C11.352,7.58938889 11.7620556,8.00005556 12.2686667,8.00005556" id="Fill-2"></path>
                        <path d="M12.2686667,11.132 L15.2826667,11.132 C15.7886667,11.132 16.1993333,10.7213333 16.1993333,10.2153333 C16.1993333,9.70994444 15.7886667,9.29866667 15.2826667,9.29866667 L12.2686667,9.29866667 C11.7620556,9.29866667 11.352,9.70994444 11.352,10.2153333 C11.352,10.7213333 11.7620556,11.132 12.2686667,11.132" id="Fill-3"></path>
                    </g>
                </g>
            </g>
        </g>
    </g>
</svg>